# Created using Spin 3D

# Vertex Array 
v 21.833 -5.011 -25.400
v 21.833 -3.801 -25.400
v 21.508 -3.801 -25.400
v 21.508 -5.470 -25.400
v 21.508 -5.470 -26.162
v 24.357 -4.138 -26.162
v 24.357 -4.138 -25.400
v 24.683 -3.679 -25.400
v 21.833 -5.011 -26.162
v 24.683 -5.429 -25.400
v 24.357 -5.429 -25.400
v 24.683 -3.679 -26.162
v 21.508 -3.801 -26.162
v 21.833 -3.801 -26.162
v 24.357 -5.429 -26.162
v 24.683 -5.429 -26.162
v 1.855 -21.098 -26.162
v 3.154 -21.929 -26.162
v 1.855 -21.098 -25.400
v 3.154 -21.929 -25.400
v 5.030 -20.729 -25.400
v 3.411 -21.765 -26.162
v 3.411 -21.765 -25.400
v 5.030 -20.729 -26.162
v 1.855 -20.769 -26.162
v 1.855 -20.769 -25.400
v 1.855 -22.761 -26.162
v 1.855 -23.089 -26.162
v 1.855 -22.761 -25.400
v 1.855 -23.089 -25.400
v 3.411 -22.094 -26.162
v 3.411 -22.094 -25.400
v 3.668 -21.929 -25.400
v 5.030 -23.130 -26.162
v 5.030 -23.130 -25.400
v 5.030 -22.801 -25.400
v 3.668 -21.929 -26.162
v 5.030 -21.057 -26.162
v 5.030 -21.057 -25.400
v 5.030 -22.801 -26.162
v -0.667 -23.520 -23.642
v -0.000 -25.400 -25.400
v 0.227 -23.520 -23.533
v 1.068 -23.520 -23.853
v -0.000 -23.520 -24.600
v 0.400 -23.520 -24.708
v -1.407 -23.520 -24.153
v -0.400 -23.520 -24.708
v 23.649 -0.621 -23.763
v 25.400 0.000 -25.400
v 23.649 0.211 -23.662
v 23.649 0.995 -23.959
v 23.649 0.000 -24.691
v 23.649 0.355 -24.786
v 23.649 -1.311 -24.239
v 23.649 -0.355 -24.786
v 1.665 -23.520 -24.526
v 0.692 -23.520 -25.000
v 23.649 1.551 -24.586
v 23.649 0.614 -25.045
v -1.826 -23.520 -24.950
v -0.692 -23.520 -25.000
v 23.649 -1.700 -24.981
v 23.649 -0.614 -25.045
v 1.880 -23.520 -25.400
v 0.800 -23.520 -25.400
v 23.649 1.751 -25.400
v 23.649 0.709 -25.400
v 0.369 0.000 -24.691
v -0.000 0.000 -24.691
v -0.000 0.000 -24.600
v -0.400 0.000 -24.708
v 0.400 -0.154 -24.708
v 0.000 0.355 -24.786
v -0.000 0.000 -25.400
v -0.692 0.000 -25.000
v 0.512 -0.355 -24.786
v 0.685 -0.575 -25.006
v 0.000 0.614 -25.045
v 0.000 0.709 -25.400
v -1.826 -23.520 -25.850
v -0.800 -23.520 -25.400
v 23.649 -1.700 -25.819
v 23.649 -0.709 -25.400
v -0.800 0.000 -25.400
v -0.775 0.000 -25.400
v 0.717 -0.614 -25.045
v 0.800 -0.709 -25.400
v 0.777 -0.684 -25.212
v 0.313 0.709 -25.400
v 0.692 -23.520 -25.800
v 1.665 -23.520 -26.274
v 23.649 0.614 -25.755
v 23.649 1.551 -26.214
v -0.671 0.388 -25.400
v -0.775 0.000 -25.596
v -0.388 0.671 -25.400
v -0.671 0.388 -48.703
v 0.000 0.775 -25.400
v -0.388 0.671 -48.703
v 1.068 -23.520 -26.947
v 0.227 -23.520 -27.267
v -0.667 -23.520 -27.158
v -1.407 -23.520 -26.647
v 0.335 0.699 -25.521
v 0.388 0.671 -25.629
v 0.000 0.775 -48.703
v 0.777 -0.684 -25.588
v 0.473 0.614 -25.755
v 23.649 0.995 -26.841
v 23.649 0.211 -27.138
v 23.649 -0.621 -27.037
v 23.649 -1.311 -26.561
v 23.649 -0.614 -25.755
v -0.769 -0.102 -25.620
v -0.751 -0.191 -25.673
v -0.692 -23.520 -25.800
v 0.712 -0.608 -25.752
v -0.775 0.000 -48.703
v 0.671 0.388 -48.703
v 0.388 0.671 -48.703
v -0.692 -0.349 -25.800
v 23.649 -0.355 -26.014
v 0.692 -0.586 -25.800
v 0.671 0.388 -25.994
v 23.649 0.355 -26.014
v 0.686 0.353 -26.010
v -0.667 -0.385 -25.833
v -0.558 -0.538 -25.973
v -0.400 -23.520 -26.092
v 0.607 -0.482 -25.920
v 0.400 -23.520 -26.092
v 0.398 -0.662 -26.091
v -0.671 -0.388 -48.703
v 0.669 -0.386 -25.991
v 0.671 -0.388 -48.703
v -0.400 -0.664 -26.092
v 0.689 -0.355 -26.014
v 0.752 0.188 -26.084
v 0.752 -0.188 -26.084
v 23.649 0.000 -26.109
v 0.775 0.000 -26.109
v 0.775 0.000 -48.703
v 0.388 -0.671 -26.099
v 0.388 -0.671 -48.703
v -0.387 -0.670 -26.098
v -0.206 -0.747 -26.173
v -0.000 -23.520 -26.200
v 0.206 -0.747 -26.173
v -0.000 -0.775 -26.200
v -0.388 -0.671 -48.703
v -0.000 -0.775 -48.703
v -1.540 0.808 -48.703
v -1.740 0.000 -48.703
v -1.540 -0.808 -48.703
v 0.000 0.000 -50.800
v -0.988 1.432 -48.703
v -0.988 -1.432 -48.703
v -0.210 1.727 -48.703
v -0.210 -1.727 -48.703
v 0.617 1.627 -48.703
v 0.617 -1.627 -48.703
v 1.302 1.154 -48.703
v 1.302 -1.154 -48.703
v 1.689 0.416 -48.703
v 1.689 -0.416 -48.703
v 0.508 -4.002 -46.604
v 0.508 -4.002 -48.113
v -0.000 -4.002 -46.604
v -0.000 -4.002 -48.113
v -0.000 -4.286 -46.604
v -0.000 -4.145 -48.415
v 0.508 -4.286 -46.604
v -0.000 -4.286 -48.113
v 0.508 -4.286 -48.113
v 0.508 -4.145 -48.415
v 0.508 -2.984 -49.779
v -0.000 -2.984 -49.779
v -0.000 -3.310 -49.779
v -0.000 -5.304 -49.779
v 0.508 -5.304 -49.779
v 0.508 -4.978 -49.779
v -0.000 -4.978 -49.779
v 0.508 -3.310 -49.779

# Normal Array
vn 0.000 -0.000 1.000
vn 0.000 0.000 1.000
vn 0.423 -0.906 0.000
vn 0.423 -0.906 0.000
vn 0.000 0.000 1.000
vn 0.000 -0.000 1.000
vn -0.423 0.906 0.000
vn 0.000 -0.000 1.000
vn 0.000 0.000 1.000
vn -0.423 0.906 0.000
vn -1.000 0.000 0.000
vn -1.000 0.000 0.000
vn 0.000 1.000 0.000
vn 1.000 -0.000 0.000
vn 0.000 1.000 -0.000
vn 1.000 0.000 0.000
vn -1.000 0.000 0.000
vn -1.000 0.000 0.000
vn 0.000 -1.000 0.000
vn 0.000 -1.000 0.000
vn 1.000 -0.000 0.000
vn 1.000 0.000 0.000
vn -0.000 0.000 -1.000
vn 0.000 -0.000 -1.000
vn 0.000 -0.000 -1.000
vn 0.000 0.000 -1.000
vn 0.000 0.000 -1.000
vn 0.000 -0.000 -1.000
vn -0.539 -0.842 0.000
vn -0.539 -0.842 0.000
vn -0.539 0.842 0.000
vn -0.539 0.842 0.000
vn 0.539 0.842 0.000
vn -0.000 0.000 1.000
vn 0.000 -0.000 1.000
vn -1.000 0.000 0.000
vn -1.000 0.000 0.000
vn 0.000 0.000 1.000
vn 0.539 -0.842 0.000
vn 0.539 -0.842 0.000
vn 0.000 0.000 1.000
vn 0.000 -0.000 1.000
vn 0.000 0.000 1.000
vn 0.539 0.842 -0.000
vn 0.000 -0.000 1.000
vn -0.539 -0.842 0.000
vn -0.539 -0.842 0.000
vn 0.000 -0.000 1.000
vn 0.000 0.000 1.000
vn 0.539 -0.842 0.000
vn 0.539 -0.842 0.000
vn 0.539 0.842 0.000
vn 0.000 -0.000 1.000
vn 1.000 -0.000 0.000
vn 1.000 0.000 0.000
vn 0.539 0.842 -0.000
vn 1.000 -0.000 0.000
vn 1.000 0.000 0.000
vn -1.000 0.000 0.000
vn -1.000 0.000 0.000
vn -0.539 0.842 0.000
vn -0.539 0.842 0.000
vn 0.000 0.000 -1.000
vn -0.000 0.000 -1.000
vn 0.000 0.000 -1.000
vn 0.000 -0.000 -1.000
vn -0.000 0.000 -1.000
vn 0.000 -0.000 -1.000
vn 0.000 0.000 -1.000
vn 0.000 -0.000 -1.000
vn 0.000 -0.000 -1.000
vn -0.000 -0.000 -1.000
vn -0.086 -0.697 0.712
vn 0.254 -0.697 0.671
vn 0.000 1.000 -0.000
vn 0.000 1.000 0.000
vn 0.000 1.000 0.000
vn -0.408 -0.697 0.590
vn 0.000 1.000 0.000
vn 0.000 1.000 0.000
vn 0.697 -0.086 0.712
vn 0.697 0.254 0.671
vn -1.000 0.000 0.000
vn -1.000 0.000 0.000
vn -1.000 -0.000 0.000
vn 0.697 -0.408 0.590
vn -1.000 0.000 0.000
vn -1.000 -0.000 0.000
vn 0.537 -0.697 0.476
vn 0.000 1.000 -0.000
vn 0.000 1.000 0.000
vn 0.697 0.537 0.476
vn -1.000 0.000 0.000
vn -1.000 -0.000 0.000
vn -0.635 -0.697 0.333
vn 0.000 1.000 0.000
vn 0.000 1.000 0.000
vn 0.697 -0.635 0.333
vn -1.000 0.000 0.000
vn -1.000 -0.000 0.000
vn 0.697 -0.697 0.172
vn 0.000 1.000 -0.000
vn 0.000 1.000 0.000
vn 0.697 0.697 0.172
vn -1.000 0.000 0.000
vn -1.000 0.000 0.000
vn 0.000 1.000 0.000
vn 0.000 1.000 0.000
vn -0.259 0.000 0.966
vn 0.259 -0.000 0.966
vn 0.237 -0.059 0.970
vn 0.259 -0.000 0.966
vn -0.259 0.000 0.966
vn -1.000 0.000 0.000
vn 0.000 1.000 0.000
vn -0.000 1.000 0.000
vn 0.000 0.259 0.966
vn 0.000 0.259 0.966
vn 0.000 0.259 0.966
vn 0.000 -0.109 0.994
vn 0.001 -0.259 0.966
vn -0.707 0.000 0.707
vn -0.707 0.000 0.707
vn 0.000 -0.363 0.932
vn 0.572 -0.000 0.820
vn 0.707 0.000 0.707
vn 0.784 -0.002 0.620
vn 0.000 0.707 0.707
vn 0.000 0.707 0.707
vn -1.000 0.000 -0.000
vn -1.000 0.000 0.000
vn 0.000 -0.707 0.707
vn 0.000 -0.707 0.707
vn -0.717 -0.697 0.000
vn 0.000 1.000 0.000
vn 0.000 1.000 0.000
vn 0.697 -0.717 -0.000
vn -1.000 -0.000 0.000
vn -1.000 -0.000 0.000
vn -0.966 0.000 0.259
vn 0.000 1.000 0.000
vn 0.000 1.000 0.000
vn -0.966 0.000 0.259
vn 0.785 0.000 0.619
vn 0.966 -0.000 0.259
vn 0.993 -0.003 0.118
vn 0.940 -0.000 0.341
vn 0.000 -0.707 0.707
vn 0.000 0.966 0.259
vn 0.000 0.966 0.259
vn 0.000 0.966 0.259
vn 0.000 -0.923 0.385
vn 0.001 -0.966 0.259
vn 0.000 -0.991 0.133
vn 0.000 1.000 0.000
vn 0.000 1.000 -0.000
vn -1.000 0.000 0.000
vn -1.000 0.000 0.000
vn -0.966 0.259 0.000
vn 0.000 1.000 0.000
vn 0.000 0.000 1.000
vn -0.707 0.707 0.000
vn -0.966 0.259 0.000
vn 0.000 0.000 1.000
vn -0.259 0.966 0.000
vn -0.707 0.707 0.000
vn 0.000 -0.000 1.000
vn 0.000 -0.000 1.000
vn 0.537 -0.697 -0.476
vn 0.254 -0.697 -0.671
vn -0.086 -0.697 -0.712
vn -0.408 -0.697 -0.590
vn -0.635 -0.697 -0.333
vn 0.697 -0.697 -0.172
vn 0.000 0.000 1.000
vn 0.206 0.978 -0.045
vn 0.159 0.972 -0.171
vn 0.259 0.966 0.000
vn -0.259 0.966 0.000
vn 0.000 0.996 -0.085
vn 0.966 -0.001 -0.259
vn 0.993 0.000 -0.118
vn 0.697 0.697 -0.172
vn 0.000 0.966 -0.259
vn 0.003 0.911 -0.412
vn 0.001 0.969 -0.247
vn 0.697 0.537 -0.476
vn 0.697 0.254 -0.671
vn 0.697 -0.086 -0.712
vn 0.697 -0.408 -0.590
vn 0.697 -0.635 -0.333
vn 0.000 -0.966 -0.259
vn 0.002 -0.991 -0.134
vn -1.000 0.000 0.000
vn -1.000 -0.000 0.000
vn -0.992 -0.035 -0.123
vn -0.990 0.000 -0.139
vn -0.966 -0.001 -0.259
vn -0.952 -0.002 -0.307
vn 0.000 1.000 -0.000
vn 0.000 1.000 0.000
vn -0.000 -0.908 -0.420
vn 0.929 0.000 -0.371
vn -0.998 -0.066 -0.000
vn -0.966 0.259 0.000
vn -0.982 -0.189 -0.001
vn 0.553 0.833 -0.003
vn 0.707 0.707 0.000
vn 0.259 0.966 0.000
vn -0.906 -0.000 -0.423
vn -0.937 -0.349 -0.002
vn -0.000 -0.707 -0.707
vn 0.005 -0.907 -0.421
vn 0.929 0.000 -0.371
vn 0.000 0.726 -0.688
vn 0.752 0.659 0.000
vn -1.000 0.000 0.000
vn -0.000 0.707 -0.707
vn 0.005 0.412 -0.911
vn -1.000 -0.000 0.000
vn -1.000 0.000 0.000
vn -0.789 0.000 -0.614
vn -0.818 -0.575 -0.006
vn -0.789 -0.000 -0.614
vn -0.707 -0.001 -0.707
vn 0.000 1.000 0.000
vn 0.000 1.000 0.000
vn 0.002 -0.757 -0.653
vn 0.707 0.000 -0.707
vn 0.715 -0.193 -0.672
vn 0.703 0.000 -0.711
vn 0.000 1.000 0.000
vn -0.815 -0.579 0.000
vn -0.966 -0.259 0.000
vn -0.000 -0.594 -0.805
vn 0.654 -0.757 -0.001
vn 0.840 -0.542 0.000
vn -0.603 -0.000 -0.797
vn -0.624 -0.782 -0.002
vn 0.000 -0.594 -0.805
vn 0.840 -0.542 0.000
vn 0.927 0.375 0.000
vn -0.000 0.410 -0.912
vn 0.927 0.375 0.000
vn 0.000 -0.385 -0.923
vn 0.936 -0.352 -0.000
vn -1.000 -0.000 0.000
vn -1.000 0.000 0.000
vn 0.002 0.134 -0.991
vn 0.000 0.259 -0.966
vn -1.000 -0.000 -0.000
vn -1.000 0.000 0.000
vn 0.001 -0.259 -0.966
vn 0.993 0.122 0.000
vn 0.966 0.259 -0.001
vn -0.000 -0.134 -0.991
vn 0.992 -0.122 -0.002
vn 0.632 0.000 -0.775
vn 0.653 -0.757 -0.000
vn 0.707 -0.707 -0.000
vn -0.382 0.000 -0.924
vn -0.397 -0.918 -0.006
vn -0.259 -0.001 -0.966
vn -0.382 0.000 -0.924
vn 0.000 1.000 0.000
vn 0.000 1.000 0.000
vn 0.374 -0.000 -0.927
vn 0.130 -0.002 -0.992
vn 0.259 -0.000 -0.966
vn 0.000 1.000 0.000
vn 0.000 1.000 0.000
vn -0.707 -0.707 0.000
vn -0.394 -0.919 0.000
vn 0.386 -0.923 -0.000
vn 0.966 -0.259 -0.000
vn -1.000 -0.000 0.000
vn -0.130 0.000 -0.992
vn -0.134 -0.991 -0.002
vn 0.134 -0.991 -0.000
vn 0.259 -0.966 -0.001
vn 0.000 1.000 0.000
vn -0.259 -0.966 -0.000
vn 0.000 0.000 1.000
vn 0.000 0.000 1.000
vn 0.000 -0.000 1.000
vn -0.756 0.186 -0.627
vn -0.756 -0.186 -0.627
vn -0.583 0.516 -0.627
vn 0.000 0.000 1.000
vn 0.000 -0.000 1.000
vn -0.583 -0.516 -0.627
vn 0.000 0.000 1.000
vn 0.000 -0.000 1.000
vn -0.276 0.728 -0.627
vn 0.000 -0.000 1.000
vn 0.000 -0.000 1.000
vn -0.276 -0.728 -0.627
vn 0.000 0.000 1.000
vn 0.000 -0.000 1.000
vn 0.000 0.000 1.000
vn 0.094 0.773 -0.627
vn 0.000 -0.000 1.000
vn 0.094 -0.773 -0.627
vn 0.000 0.000 1.000
vn 0.000 0.000 1.000
vn 0.000 -0.000 1.000
vn 0.000 -0.000 1.000
vn 0.000 0.000 1.000
vn 0.000 -0.000 1.000
vn 0.442 0.641 -0.627
vn 0.442 -0.641 -0.627
vn 0.000 0.000 1.000
vn 0.000 -0.000 1.000
vn 0.000 0.000 1.000
vn 0.000 0.000 1.000
vn 0.000 -0.000 1.000
vn 0.000 -0.000 1.000
vn 0.690 0.362 -0.627
vn 0.690 -0.362 -0.627
vn 0.779 0.000 -0.627
vn 0.000 1.000 0.000
vn 0.000 1.000 0.000
vn 0.000 0.000 1.000
vn -1.000 0.000 0.000
vn -1.000 0.000 0.000
vn 0.000 -0.000 1.000
vn 0.000 -1.000 0.000
vn -1.000 0.000 0.000
vn 1.000 -0.000 0.000
vn 0.000 -1.000 0.000
vn 1.000 -0.000 0.000
vn 1.000 0.000 -0.000
vn 0.000 0.853 0.521
vn 0.000 0.853 0.521
vn -1.000 0.000 -0.000
vn -1.000 0.000 0.000
vn 0.000 -0.853 0.521
vn -1.000 0.000 0.000
vn 1.000 -0.000 0.000
vn 0.000 -0.853 0.521
vn 1.000 0.000 0.000
vn 1.000 0.000 0.000
vn 0.000 0.853 -0.521
vn 0.000 0.853 -0.521
vn 0.000 -0.853 -0.522
vn -1.000 0.000 0.000
vn 0.000 -0.853 -0.522
vn 1.000 0.000 -0.000
vn -0.000 -0.000 -1.000
vn 0.000 0.000 -1.000
vn -0.000 -0.000 -1.000
vn 0.000 0.000 -1.000

# Facets
f 1//1 2//1 3//1
f 4//2 1//2 3//2
f 5//3 6//3 4//3
f 6//4 7//4 4//4
f 8//5 1//5 4//5
f 7//6 8//6 4//6
f 8//7 9//7 1//7
f 10//8 8//8 7//8
f 11//9 10//9 7//9
f 12//10 9//10 8//10
f 13//11 5//11 3//11
f 5//12 4//12 3//12
f 2//13 13//13 3//13
f 1//14 14//14 2//14
f 14//15 13//15 2//15
f 9//16 14//16 1//16
f 6//17 15//17 7//17
f 15//18 11//18 7//18
f 15//19 16//19 11//19
f 16//20 10//20 11//20
f 10//21 12//21 8//21
f 16//22 12//22 10//22
f 14//23 5//23 13//23
f 14//24 9//24 5//24
f 9//25 6//25 5//25
f 12//26 6//26 9//26
f 12//27 15//27 6//27
f 12//28 16//28 15//28
f 17//29 18//29 19//29
f 18//30 20//30 19//30
f 21//31 22//31 23//31
f 24//32 22//32 21//32
f 23//33 25//33 26//33
f 19//34 23//34 26//34
f 20//35 23//35 19//35
f 27//36 28//36 29//36
f 28//37 30//37 29//37
f 30//38 20//38 29//38
f 28//39 31//39 30//39
f 31//40 32//40 30//40
f 32//41 20//41 30//41
f 32//42 33//42 20//42
f 33//43 23//43 20//43
f 22//44 25//44 23//44
f 33//45 21//45 23//45
f 31//46 34//46 32//46
f 34//47 35//47 32//47
f 35//48 36//48 32//48
f 36//49 33//49 32//49
f 37//50 38//50 33//50
f 38//51 39//51 33//51
f 36//52 37//52 33//52
f 39//53 21//53 33//53
f 39//54 24//54 21//54
f 38//55 24//55 39//55
f 40//56 37//56 36//56
f 35//57 40//57 36//57
f 34//58 40//58 35//58
f 25//59 17//59 26//59
f 17//60 19//60 26//60
f 20//61 27//61 29//61
f 18//62 27//62 20//62
f 18//63 17//63 25//63
f 22//64 18//64 25//64
f 31//65 28//65 27//65
f 18//66 31//66 27//66
f 37//67 31//67 18//67
f 22//68 37//68 18//68
f 38//69 37//69 22//69
f 24//70 38//70 22//70
f 37//71 34//71 31//71
f 40//72 34//72 37//72
f 41//73 42//73 43//73
f 42//74 44//74 43//74
f 45//75 41//75 43//75
f 46//76 45//76 43//76
f 44//77 46//77 43//77
f 47//78 42//78 41//78
f 48//79 47//79 41//79
f 45//80 48//80 41//80
f 49//81 50//81 51//81
f 50//82 52//82 51//82
f 53//83 49//83 51//83
f 54//84 53//84 51//84
f 52//85 54//85 51//85
f 55//86 50//86 49//86
f 56//87 55//87 49//87
f 53//88 56//88 49//88
f 42//89 57//89 44//89
f 58//90 46//90 44//90
f 57//91 58//91 44//91
f 50//92 59//92 52//92
f 60//93 54//93 52//93
f 59//94 60//94 52//94
f 61//95 42//95 47//95
f 62//96 61//96 47//96
f 48//97 62//97 47//97
f 63//98 50//98 55//98
f 64//99 63//99 55//99
f 56//100 64//100 55//100
f 42//101 65//101 57//101
f 66//102 58//102 57//102
f 65//103 66//103 57//103
f 50//104 67//104 59//104
f 68//105 60//105 59//105
f 67//106 68//106 59//106
f 69//107 70//107 71//107
f 70//108 72//108 71//108
f 72//109 45//109 71//109
f 45//110 73//110 71//110
f 73//111 69//111 71//111
f 46//112 73//112 45//112
f 72//113 48//113 45//113
f 74//114 75//114 70//114
f 76//115 72//115 70//115
f 75//116 76//116 70//116
f 69//117 74//117 70//117
f 54//118 74//118 69//118
f 53//119 54//119 69//119
f 73//120 53//120 69//120
f 73//121 56//121 53//121
f 76//122 48//122 72//122
f 76//123 62//123 48//123
f 77//124 56//124 73//124
f 46//125 77//125 73//125
f 58//126 78//126 46//126
f 78//127 77//127 46//127
f 60//128 79//128 74//128
f 54//129 60//129 74//129
f 79//130 80//130 74//130
f 80//131 75//131 74//131
f 78//132 56//132 77//132
f 78//133 64//133 56//133
f 81//134 42//134 61//134
f 82//135 81//135 61//135
f 62//136 82//136 61//136
f 83//137 50//137 63//137
f 84//138 83//138 63//138
f 64//139 84//139 63//139
f 85//140 62//140 76//140
f 86//141 85//141 76//141
f 75//142 86//142 76//142
f 85//143 82//143 62//143
f 87//144 78//144 58//144
f 66//145 88//145 58//145
f 88//146 89//146 58//146
f 89//147 87//147 58//147
f 87//148 64//148 78//148
f 90//149 80//149 79//149
f 68//150 90//150 79//150
f 60//151 68//151 79//151
f 89//152 64//152 87//152
f 89//153 84//153 64//153
f 88//154 84//154 89//154
f 91//155 66//155 65//155
f 92//156 91//156 65//156
f 93//157 68//157 67//157
f 94//158 93//158 67//158
f 95//159 96//159 86//159
f 96//160 85//160 86//160
f 75//161 95//161 86//161
f 97//162 98//162 95//162
f 98//163 96//163 95//163
f 75//164 97//164 95//164
f 99//165 100//165 97//165
f 100//166 98//166 97//166
f 80//167 99//167 97//167
f 75//168 80//168 97//168
f 101//169 92//169 42//169
f 102//170 101//170 42//170
f 103//171 102//171 42//171
f 104//172 103//172 42//172
f 81//173 104//173 42//173
f 92//174 65//174 42//174
f 90//175 99//175 80//175
f 90//176 105//176 99//176
f 105//177 106//177 99//177
f 106//178 107//178 99//178
f 107//179 100//179 99//179
f 68//180 105//180 90//180
f 91//181 108//181 66//181
f 108//182 88//182 66//182
f 50//183 94//183 67//183
f 93//184 109//184 68//184
f 109//185 106//185 68//185
f 106//186 105//186 68//186
f 110//187 94//187 50//187
f 111//188 110//188 50//188
f 112//189 111//189 50//189
f 113//190 112//190 50//190
f 83//191 113//191 50//191
f 114//192 84//192 88//192
f 108//193 114//193 88//193
f 113//194 83//194 84//194
f 114//195 113//195 84//195
f 96//196 115//196 85//196
f 115//197 82//197 85//197
f 116//198 117//198 82//198
f 115//199 116//199 82//199
f 104//200 81//200 82//200
f 117//201 104//201 82//201
f 118//202 114//202 108//202
f 91//203 118//203 108//203
f 119//204 115//204 96//204
f 98//205 119//205 96//205
f 119//206 116//206 115//206
f 109//207 120//207 106//207
f 120//208 121//208 106//208
f 121//209 107//209 106//209
f 122//210 117//210 116//210
f 119//211 122//211 116//211
f 123//212 114//212 118//212
f 124//213 123//213 118//213
f 91//214 124//214 118//214
f 93//215 125//215 109//215
f 125//216 120//216 109//216
f 94//217 126//217 93//217
f 126//218 127//218 93//218
f 127//219 125//219 93//219
f 123//220 112//220 114//220
f 112//221 113//221 114//221
f 128//222 117//222 122//222
f 119//223 128//223 122//223
f 128//224 129//224 117//224
f 129//225 130//225 117//225
f 130//226 103//226 117//226
f 103//227 104//227 117//227
f 131//228 123//228 124//228
f 91//229 132//229 124//229
f 133//230 131//230 124//230
f 132//231 133//231 124//231
f 92//232 132//232 91//232
f 134//233 129//233 128//233
f 119//234 134//234 128//234
f 135//235 123//235 131//235
f 133//236 136//236 131//236
f 136//237 135//237 131//237
f 137//238 130//238 129//238
f 134//239 137//239 129//239
f 138//240 123//240 135//240
f 136//241 138//241 135//241
f 127//242 120//242 125//242
f 126//243 139//243 127//243
f 139//244 120//244 127//244
f 140//245 123//245 138//245
f 136//246 140//246 138//246
f 94//247 110//247 126//247
f 110//248 141//248 126//248
f 142//249 139//249 126//249
f 141//250 142//250 126//250
f 141//251 111//251 123//251
f 111//252 112//252 123//252
f 140//253 141//253 123//253
f 142//254 143//254 139//254
f 143//255 120//255 139//255
f 142//256 141//256 140//256
f 136//257 142//257 140//257
f 132//258 144//258 133//258
f 144//259 145//259 133//259
f 145//260 136//260 133//260
f 146//261 130//261 137//261
f 134//262 146//262 137//262
f 147//263 148//263 130//263
f 146//264 147//264 130//264
f 148//265 102//265 130//265
f 102//266 103//266 130//266
f 149//267 144//267 132//267
f 150//268 149//268 132//268
f 148//269 150//269 132//269
f 92//270 101//270 132//270
f 101//271 148//271 132//271
f 134//272 151//272 146//272
f 151//273 147//273 146//273
f 149//274 145//274 144//274
f 136//275 143//275 142//275
f 110//276 111//276 141//276
f 150//277 148//277 147//277
f 151//278 150//278 147//278
f 150//279 152//279 149//279
f 152//280 145//280 149//280
f 101//281 102//281 148//281
f 151//282 152//282 150//282
f 119//283 153//283 154//283
f 134//284 119//284 154//284
f 155//285 134//285 154//285
f 153//286 156//286 154//286
f 156//287 155//287 154//287
f 157//288 156//288 153//288
f 98//289 157//289 153//289
f 119//290 98//290 153//290
f 156//291 158//291 155//291
f 151//292 134//292 155//292
f 158//293 151//293 155//293
f 159//294 156//294 157//294
f 100//295 159//295 157//295
f 98//296 100//296 157//296
f 156//297 160//297 158//297
f 152//298 151//298 158//298
f 160//299 152//299 158//299
f 107//300 159//300 100//300
f 161//301 156//301 159//301
f 107//302 161//302 159//302
f 156//303 162//303 160//303
f 145//304 152//304 160//304
f 162//305 145//305 160//305
f 121//306 161//306 107//306
f 120//307 163//307 121//307
f 163//308 161//308 121//308
f 162//309 136//309 145//309
f 163//310 156//310 161//310
f 156//311 164//311 162//311
f 164//312 136//312 162//312
f 143//313 165//313 120//313
f 165//314 163//314 120//314
f 164//315 143//315 136//315
f 164//316 166//316 143//316
f 166//317 165//317 143//317
f 165//318 156//318 163//318
f 156//319 166//319 164//319
f 166//320 156//320 165//320
f 167//321 168//321 169//321
f 168//322 170//322 169//322
f 171//323 167//323 169//323
f 170//324 172//324 169//324
f 172//325 171//325 169//325
f 173//326 167//326 171//326
f 174//327 173//327 171//327
f 172//328 174//328 171//328
f 173//329 168//329 167//329
f 174//330 175//330 173//330
f 175//331 176//331 173//331
f 176//332 168//332 173//332
f 168//333 177//333 170//333
f 177//334 178//334 170//334
f 178//335 179//335 170//335
f 179//336 172//336 170//336
f 180//337 175//337 174//337
f 172//338 180//338 174//338
f 176//339 177//339 168//339
f 180//340 181//340 175//340
f 181//341 182//341 175//341
f 182//342 176//342 175//342
f 176//343 182//343 172//343
f 182//344 183//344 172//344
f 179//345 176//345 172//345
f 183//346 180//346 172//346
f 179//347 184//347 176//347
f 184//348 177//348 176//348
f 177//349 184//349 178//349
f 184//350 179//350 178//350
f 182//351 181//351 183//351
f 181//352 180//352 183//352

# Thank you for using Spin 3D

